<svg width="413" height="192" viewBox="0 0 413 192" fill="none" xmlns="http://www.w3.org/2000/svg">
<rect width="413" height="192" fill="#EDF5FF"/>
<path fill-rule="evenodd" clip-rule="evenodd" d="M316 25.0078L300.629 64.1659C297.204 72.8919 290.485 79.9584 281.892 83.8721L251.656 97.6436L288.864 94.2228L268.325 146.076C266.773 149.995 263.103 152.727 258.868 153.119C213.998 157.27 202.566 156.677 191.911 170.864C185.724 179.102 174.765 182.769 165.783 177.638L163.962 176.597C208.08 102.833 207.174 100.856 247.119 42.302C255.769 29.6227 297.047 24.7808 316 25.0078Z" fill="white"/>
<path d="M201.212 96.0656C192.415 81.7928 182.822 67.1358 165.881 42.3018C157.231 29.6225 115.953 24.7806 97 25.0076L112.371 64.1657C115.796 72.8917 122.515 79.9582 131.108 83.8719L161.344 97.6434L124.136 94.2226L144.675 146.076C146.227 149.995 149.897 152.726 154.132 153.118C158.677 153.539 162.879 153.911 166.772 154.254C173.523 142.875 179.024 133.513 183.802 125.382C190.553 113.895 195.86 104.863 201.212 96.0656Z" fill="white"/>
<path d="M217.234 166.43C218.565 167.724 219.833 169.191 221.089 170.864C227.276 179.102 238.235 182.769 247.217 177.637L249.038 176.597C246.304 172.025 243.742 167.73 241.334 163.679C230.789 164.619 223.181 165.357 217.234 166.43Z" fill="white"/>
<path d="M204.416 72.9805C204.416 70.8355 203.786 68.7376 202.602 66.9457C201.419 65.1538 199.735 63.7464 197.759 62.8972C195.782 62.0481 193.599 61.7943 191.479 62.1673C189.359 62.5404 187.396 63.5238 185.831 64.9963V64.9664L178.749 72.1283L178.738 72.1398C177.804 73.1458 176.474 73.7247 175.089 73.7247H174.328C173.047 73.7247 172 74.7675 172 76.0446C172.004 77.8648 172.732 79.6092 174.023 80.8962C175.315 82.1833 177.066 82.9082 178.892 82.9125H183.14L181.953 85.5126H181.935L179.406 90.9518H179.397L179.206 91.3836L178.731 92.4012H178.754C178.3 93.4164 177.807 94.4662 177.309 95.5159C176.513 97.1995 175.713 98.8924 175.077 100.477C173.982 103.218 173.153 106.103 173.153 109.327C173.153 120.748 182.437 130 193.898 130H212.339C227.626 130 240 117.67 240 102.437V92.4219C240 87.2905 233.785 84.7477 230.15 88.3333L230.141 88.3402C229.311 89.1683 228.326 89.8253 227.241 90.2734C226.156 90.7216 224.993 90.9521 223.818 90.9518H197.365L199.013 87.3617H199.009L203.511 77.3539H203.504C204.106 75.9739 204.418 74.4851 204.416 72.9805ZM180.416 73.7155L183.525 70.5687V80.6155H178.892C177.677 80.6113 176.513 80.1284 175.653 79.2721C174.794 78.4158 174.309 77.2556 174.305 76.0446V76.04L174.314 76.0308L174.324 76.0216H175.089C176.088 76.0219 177.077 75.8172 177.993 75.4205C178.909 75.0238 179.734 74.4434 180.416 73.7155ZM223.818 95.5457C225.597 95.5462 227.358 95.1975 229.001 94.5196C230.645 93.8417 232.138 92.8479 233.396 91.595C233.56 91.4345 233.769 91.3258 233.995 91.2825C234.221 91.2391 234.455 91.263 234.667 91.3511C234.88 91.4393 235.062 91.5878 235.19 91.7782C235.319 91.9686 235.388 92.1924 235.39 92.4219V102.136C235.392 108.149 233.025 113.923 228.797 118.214H206.807C202.814 118.217 198.98 116.655 196.134 113.865C193.287 111.075 191.656 107.281 191.593 103.303H191.616C191.616 101.341 191.909 100.294 192.725 98.6857L192.909 98.325L192.944 98.2653C193.843 96.5656 194.636 95.6835 195.874 95.5457H223.818ZM189.288 110.246C189.288 108.997 189.288 108.166 189.288 108.166C190.091 112.114 192.585 115.472 195.716 118.021C198.846 120.571 202.764 121.962 206.807 121.961H225.017C220.959 125.141 217.502 125.416 212.339 125.406H193.898C192.337 125.407 190.784 125.183 189.288 124.74V110.246ZM182.341 90.1042L183.41 87.8073H196.298L195.231 90.1042H182.341Z" fill="#1D5BC1"/>
</svg>
