<svg width="413" height="192" viewBox="0 0 413 192" fill="none" xmlns="http://www.w3.org/2000/svg">
<rect width="413" height="192" fill="#EDF5FF"/>
<path fill-rule="evenodd" clip-rule="evenodd" d="M316 25.0078L300.629 64.1659C297.204 72.8919 290.485 79.9584 281.892 83.8721L251.656 97.6436L288.864 94.2228L268.325 146.076C266.773 149.995 263.103 152.727 258.868 153.119C213.998 157.27 202.566 156.677 191.911 170.864C185.724 179.102 174.765 182.769 165.783 177.638L163.962 176.597C208.08 102.833 207.174 100.856 247.119 42.302C255.769 29.6227 297.047 24.7808 316 25.0078Z" fill="white"/>
<path d="M201.212 96.0656C192.415 81.7928 182.822 67.1358 165.881 42.3018C157.231 29.6225 115.953 24.7806 97 25.0076L112.371 64.1657C115.796 72.8917 122.515 79.9582 131.108 83.8719L161.344 97.6434L124.136 94.2226L144.675 146.076C146.227 149.995 149.897 152.726 154.132 153.118C158.677 153.539 162.879 153.911 166.772 154.254C173.523 142.875 179.024 133.513 183.802 125.382C190.553 113.895 195.86 104.863 201.212 96.0656Z" fill="white"/>
<path d="M217.234 166.43C218.565 167.724 219.833 169.191 221.089 170.864C227.276 179.102 238.235 182.769 247.217 177.637L249.038 176.597C246.304 172.025 243.742 167.73 241.334 163.679C230.789 164.619 223.181 165.357 217.234 166.43Z" fill="white"/>
<path d="M203.786 62.2531C203.786 58.9038 202.804 55.6279 200.963 52.8299C199.122 50.0318 196.502 47.8342 193.427 46.5082C190.351 45.1823 186.954 44.7861 183.656 45.3686C180.358 45.951 177.302 47.4867 174.867 49.7859V49.7393L163.849 60.9225L163.831 60.9404C162.378 62.5113 160.308 63.4152 158.153 63.4152H156.969C154.975 63.4152 153.347 65.0435 153.347 67.0377C153.353 69.8799 154.485 72.6038 156.495 74.6135C158.505 76.6232 161.229 77.7552 164.071 77.7618H170.681L168.834 81.8219H168.805L164.871 90.3151H164.856L164.559 90.9894L163.82 92.5783H163.856C163.149 94.1636 162.382 95.8027 161.607 97.4418C160.369 100.071 159.125 102.714 158.135 105.189C156.431 109.468 155.14 113.973 155.14 119.008C155.14 136.841 169.587 151.288 187.42 151.288H216.113C239.9 151.288 259.153 132.035 259.153 108.248V92.6106C259.153 84.598 249.484 80.6276 243.827 86.2263L243.813 86.2371C242.522 87.5303 240.988 88.5561 239.3 89.2558C237.612 89.9556 235.802 90.3156 233.975 90.3151H192.814L195.379 84.7092H195.372L202.376 69.0821H202.366C203.302 66.9274 203.788 64.6026 203.786 62.2531ZM166.442 63.4008L171.28 58.4871V74.1752H164.071C162.18 74.1685 160.368 73.4144 159.031 72.0773C157.694 70.7402 156.94 68.9286 156.933 67.0377V67.0305L156.948 67.0162L156.962 67.0018H158.153C159.708 67.0022 161.246 66.6827 162.672 66.0632C164.098 65.4437 165.381 64.5375 166.442 63.4008ZM233.975 97.4884C236.742 97.4892 239.483 96.9447 242.04 95.8862C244.597 94.8277 246.92 93.2759 248.877 91.3194C249.133 91.0688 249.458 90.8991 249.809 90.8314C250.161 90.7637 250.525 90.801 250.856 90.9387C251.187 91.0763 251.469 91.3082 251.669 91.6055C251.869 91.9028 251.977 92.2524 251.98 92.6106V107.779C251.983 117.168 248.3 126.184 241.722 132.885H207.505C201.293 132.89 195.327 130.45 190.898 126.093C186.469 121.737 183.931 115.813 183.833 109.601H183.869C183.869 106.538 184.325 104.902 185.594 102.391L185.881 101.828L185.935 101.735C187.334 99.0809 188.568 97.7036 190.494 97.4884H233.975ZM180.247 120.443C180.247 118.492 180.247 117.194 180.247 117.194C181.496 123.359 185.377 128.603 190.248 132.584C195.118 136.565 201.215 138.738 207.505 138.735H235.84C229.526 143.701 224.146 144.13 216.113 144.115H187.42C184.991 144.117 182.575 143.766 180.247 143.075V120.443ZM169.437 88.9916L171.101 85.405H191.154L189.493 88.9916H169.437Z" fill="#1D5BC1"/>
</svg>
