<svg width="413" height="192" viewBox="0 0 413 192" fill="none" xmlns="http://www.w3.org/2000/svg">
<rect width="413" height="192" fill="#EDF5FF"/>
<path fill-rule="evenodd" clip-rule="evenodd" d="M316 25.0078L300.629 64.1659C297.204 72.8919 290.485 79.9584 281.892 83.8721L251.656 97.6436L288.864 94.2228L268.325 146.076C266.773 149.995 263.103 152.727 258.868 153.119C213.998 157.27 202.566 156.677 191.911 170.864C185.724 179.102 174.765 182.769 165.783 177.638L163.962 176.597C208.08 102.833 207.174 100.856 247.119 42.302C255.769 29.6227 297.047 24.7808 316 25.0078Z" fill="white"/>
<path d="M201.212 96.0656C192.415 81.7928 182.822 67.1358 165.881 42.3018C157.231 29.6225 115.953 24.7806 97 25.0076L112.371 64.1657C115.796 72.8917 122.515 79.9582 131.108 83.8719L161.344 97.6434L124.136 94.2226L144.675 146.076C146.227 149.995 149.897 152.726 154.132 153.118C158.677 153.539 162.879 153.911 166.772 154.254C173.523 142.875 179.024 133.513 183.802 125.382C190.553 113.895 195.86 104.863 201.212 96.0656Z" fill="white"/>
<path d="M217.234 166.43C218.565 167.724 219.833 169.191 221.089 170.864C227.276 179.102 238.235 182.769 247.217 177.637L249.038 176.597C246.304 172.025 243.742 167.73 241.334 163.679C230.789 164.619 223.181 165.357 217.234 166.43Z" fill="white"/>
<path d="M153.833 136.5V123.333H195.812L140.917 67.375L149.958 58.1583L205.5 114.61L239.083 80.3771C238.653 79.3896 238.33 78.3736 238.115 77.329C237.899 76.2888 237.792 75.1653 237.792 73.9583C237.792 69.35 239.352 65.4549 242.474 62.2729C245.595 59.091 249.417 57.5 253.937 57.5C258.458 57.5 262.28 59.091 265.401 62.2729C268.523 65.4549 270.083 69.35 270.083 73.9583C270.083 78.5667 268.523 82.4618 265.401 85.6437C262.28 88.8257 258.458 90.4167 253.937 90.4167C252.969 90.4167 252.026 90.3333 251.109 90.1665C250.196 90.0041 249.309 89.7583 248.448 89.4292L215.187 123.333H257.167V136.5H153.833Z" fill="#1D5BC1"/>
</svg>
