<svg width="413" height="192" viewBox="0 0 413 192" fill="none" xmlns="http://www.w3.org/2000/svg">
<rect width="413" height="192" fill="#EDF5FF"/>
<path fill-rule="evenodd" clip-rule="evenodd" d="M316 25.0078L300.629 64.1659C297.204 72.8919 290.485 79.9584 281.892 83.8721L251.656 97.6436L288.864 94.2228L268.325 146.076C266.773 149.995 263.103 152.727 258.868 153.119C213.998 157.27 202.566 156.677 191.911 170.864C185.724 179.102 174.765 182.769 165.783 177.638L163.962 176.597C208.08 102.833 207.174 100.856 247.119 42.302C255.769 29.6227 297.047 24.7808 316 25.0078Z" fill="white"/>
<path d="M201.212 96.0656C192.415 81.7928 182.822 67.1358 165.881 42.3018C157.231 29.6225 115.953 24.7806 97 25.0076L112.371 64.1657C115.796 72.8917 122.515 79.9582 131.108 83.8719L161.344 97.6434L124.136 94.2226L144.675 146.076C146.227 149.995 149.897 152.726 154.132 153.118C158.677 153.539 162.879 153.911 166.772 154.254C173.523 142.875 179.024 133.513 183.802 125.382C190.553 113.895 195.86 104.863 201.212 96.0656Z" fill="white"/>
<path d="M217.234 166.43C218.565 167.724 219.833 169.191 221.089 170.864C227.276 179.102 238.235 182.769 247.217 177.637L249.038 176.597C246.304 172.025 243.742 167.73 241.334 163.679C230.789 164.619 223.181 165.357 217.234 166.43Z" fill="white"/>
<g clip-path="url(#clip0_910_3785)">
<path d="M237.879 96.6222C233.593 92.7325 228.189 89.5895 222.675 86.4508C220.169 85.067 212.478 79.0469 215.14 70.4997L210.352 68.4789C217.886 56.7887 227.712 45.2336 239.752 34.4209C230.083 37.6736 221.536 42.7066 215.119 51.625C218.899 43.7148 225.05 35.9144 231.842 28.0042C222.548 34.6614 214.507 42.2003 209.474 52.262L212.988 38.1756C207.955 47.2291 204.441 56.4133 203.057 65.5764L195.654 62.5642L194.401 63.5767C200.927 75.2669 197.544 81.4178 194.27 83.5736C187.743 87.9695 178.319 93.6142 173.526 98.5164C164.473 107.831 161.836 116.623 162.714 128.313C163.591 143.277 174.535 155.714 188.992 160.612C195.409 162.764 201.298 163.008 207.846 163.008C218.393 163.008 229.205 160.241 237.137 153.584C241.294 150.135 244.641 145.814 246.942 140.927C249.243 136.04 250.441 130.707 250.451 125.305C250.47 119.914 249.362 114.578 247.197 109.64C245.033 104.702 241.861 100.271 237.883 96.6306L237.879 96.6222ZM217.882 146.543C217.376 148.804 215.752 151.576 213.752 154.077C214.499 152.694 215.136 151.31 215.511 149.791C218.654 138.607 220.038 133.465 218.523 121.137C218.283 119.884 217.777 115.864 215.887 111.468C213.25 104.79 209.23 98.5037 208.723 97.12C207.846 94.9895 206.593 85.9361 206.462 79.7851C206.593 85.0586 206.968 94.728 208.352 98.508C208.727 99.782 212.372 105.431 215.009 112.329C216.768 117.117 217.14 121.513 217.515 122.766C218.789 128.436 217.275 137.991 215.275 147.024C214.638 150.297 212.879 154.077 210.617 156.955C211.87 155.195 212.879 152.934 213.63 150.297C215.144 145.024 215.76 138.236 215.629 133.95C215.52 131.444 214.376 126.04 212.486 121.142C211.364 118.505 209.719 115.737 208.597 113.847C207.344 111.957 207.344 107.827 206.837 103.035C206.947 108.198 206.462 110.835 207.715 114.484C208.462 116.615 211.229 119.627 211.976 122.525C213.119 126.415 214.237 130.701 214.127 133.338C214.127 136.35 213.997 141.885 212.613 147.926C211.735 152.432 209.71 156.343 206.462 158.849C207.698 157.311 208.557 155.505 208.968 153.575C209.474 150.939 209.605 148.412 209.845 145.269C210.103 142.033 209.896 138.776 209.23 135.599C208.217 131.072 206.593 126.546 205.825 123.403C205.956 126.917 207.34 131.313 207.977 135.97C208.462 139.375 208.217 142.758 208.086 145.771C207.977 149.285 206.833 155.461 205.319 158.469C203.804 157.832 203.319 156.955 202.307 155.702C201.032 154.077 200.286 152.318 199.539 150.297C198.838 148.635 198.286 146.914 197.89 145.155C197.303 140.753 198.428 136.293 201.032 132.697C203.669 128.917 204.197 128.676 205.053 124.28C203.8 128.17 202.922 128.541 200.155 131.815C197.012 135.464 196.531 140.738 196.531 145.02C196.531 146.779 197.278 148.8 197.915 150.69C198.662 152.689 199.408 154.689 200.421 156.204C201.167 157.457 202.18 158.334 203.057 158.971C199.784 158.094 196.4 156.841 194.27 155.081C188.996 150.534 184.339 142.885 183.702 136.097C183.196 130.558 188.229 122.517 195.392 118.496C201.433 114.982 202.817 111.071 204.07 104.655C202.311 110.194 200.556 114.982 194.755 117.859C186.469 122.386 182.187 129.68 182.584 136.713C183.2 145.636 186.714 151.808 193.899 156.71C195.523 157.853 197.788 158.971 200.185 159.853C191.241 157.722 190.123 156.469 187.111 152.955C187.111 152.689 186.343 152.187 186.343 152.078C182.322 147.551 177.31 139.75 175.53 132.587C174.914 130.081 174.277 127.444 175.045 124.917C178.298 113.096 185.461 108.57 192.625 103.693C194.405 102.419 196.164 101.297 197.788 100.044C201.809 96.8795 202.821 88.7289 203.699 84.0714C202.075 89.7414 200.294 96.7698 197.151 99.0353C195.527 100.288 193.502 101.297 191.878 102.419C184.474 107.452 177.045 112.24 173.661 124.415C172.893 127.579 173.395 129.841 174.146 132.853C176.036 140.257 181.069 148.298 185.351 153.09L186.098 153.837C188.052 156.028 190.511 157.709 193.262 158.735C190.736 158.142 188.288 157.258 185.967 156.098C174.277 150.449 166.498 138.257 165.996 128.326C164.983 108.089 174.674 102.178 183.706 94.7533C188.739 90.6231 195.793 88.6023 199.813 81.1942C200.56 79.5447 201.066 76.0305 200.054 72.2505C199.678 70.9975 197.792 66.4708 197.042 65.4625L208.225 70.3858C207.985 75.6592 207.85 79.9201 208.841 83.8351C209.985 88.0961 215.52 94.2512 217.785 101.436C222.181 114.995 221.059 132.701 217.895 146.547L217.882 146.543Z" fill="#1D5BC1"/>
</g>
<defs>
<clipPath id="clip0_910_3785">
<rect width="135" height="135" fill="white" transform="translate(139 28)"/>
</clipPath>
</defs>
</svg>
