<svg width="191" height="190" viewBox="0 0 191 190" fill="none" xmlns="http://www.w3.org/2000/svg">
<path fill-rule="evenodd" clip-rule="evenodd" d="M190.269 24.5302L177.009 58.6658C174.054 66.2726 168.257 72.4327 160.844 75.8444L134.759 87.8495L166.858 84.8674L149.139 130.07C147.8 133.487 144.634 135.867 140.98 136.209C102.27 139.828 92.4074 139.311 83.2153 151.679C77.8779 158.86 68.4232 162.057 60.6745 157.583L59.1036 156.676C97.1651 92.373 96.3835 90.6501 130.845 39.6062C138.307 28.5532 173.918 24.3324 190.269 24.5302Z" fill="#3B82F6"/>
<path d="M91.2395 86.4739C83.6506 74.0318 75.3744 61.2548 60.7588 39.606C53.2966 28.553 17.6849 24.3322 1.33398 24.5301L14.5946 58.6656C17.5496 66.2724 23.3461 72.4325 30.7593 75.8442L56.8445 87.8493L24.7449 84.8673L42.464 130.07C43.8033 133.486 46.9691 135.867 50.6229 136.209C54.544 136.575 58.169 136.9 61.5273 137.199C67.352 127.279 72.0979 119.118 76.2199 112.03C82.0435 102.017 86.6225 94.1427 91.2395 86.4739Z" fill="#3B82F6"/>
<path d="M105.062 147.813C106.211 148.941 107.304 150.22 108.388 151.678C113.725 158.859 123.18 162.057 130.929 157.583L132.5 156.676C130.141 152.691 127.931 148.946 125.853 145.415C116.756 146.235 110.193 146.878 105.062 147.813Z" fill="#3B82F6"/>
<path fill-rule="evenodd" clip-rule="evenodd" d="M140.688 20.0469C139.638 20.487 138.574 20.9665 137.516 21.4906C125.15 14.4326 110.835 10.3997 95.5786 10.3997C80.4064 10.3997 66.1658 14.3879 53.8479 21.3732C52.8684 20.8946 51.885 20.4538 50.914 20.0467C48.1636 18.8935 45.1806 17.8764 42.0771 16.9809C57.2986 6.53871 75.7251 0.428711 95.5786 0.428711C115.49 0.428711 133.965 6.57415 149.212 17.0717C146.221 17.945 143.346 18.9324 140.688 20.0469ZM95.5786 189.81C147.875 189.809 190.269 147.415 190.269 95.1186C190.269 85.4545 188.821 76.1285 186.131 67.3458C183.27 71.9946 181.978 73.9752 178.279 76.6482C179.601 82.5939 180.298 88.7748 180.298 95.1186C180.298 141.908 142.368 179.839 95.5782 179.839V179.84C48.7888 179.839 10.8586 141.909 10.8586 95.1196C10.8586 88.7758 11.5559 82.5948 12.8779 76.6492C9.17888 73.9762 7.88716 71.9956 5.02587 67.3467C2.33544 76.1295 0.887695 85.4555 0.887695 95.1196C0.887695 147.416 43.2822 189.81 95.5786 189.81V189.81Z" fill="#1F2937"/>
</svg>
