<?xml version="1.0" standalone="no"?>
<!DOCTYPE svg PUBLIC "-//W3C//DTD SVG 20010904//EN"
 "http://www.w3.org/TR/2001/REC-SVG-20010904/DTD/svg10.dtd">
<svg version="1.0" xmlns="http://www.w3.org/2000/svg"
 width="764.000000pt" height="764.000000pt" viewBox="0 0 764.000000 764.000000"
 preserveAspectRatio="xMidYMid meet">
<metadata>
Created by potrace 1.14, written by Peter Selinger 2001-2017
</metadata>
<g transform="translate(0.000000,764.000000) scale(0.100000,-0.100000)"
fill="#000000" stroke="none">
<path d="M3727 7604 c-1 -1 -54 -5 -117 -8 -63 -4 -135 -9 -160 -12 -25 -3
-52 -5 -60 -5 -8 -1 -40 -5 -70 -9 -30 -5 -73 -11 -95 -15 -22 -3 -62 -10 -90
-15 -27 -5 -63 -12 -80 -15 -55 -11 -75 -15 -190 -45 -139 -36 -305 -89 -322
-102 -7 -6 -13 -8 -13 -5 0 4 -36 -9 -79 -27 -44 -19 -82 -31 -85 -28 -4 3 -6
0 -6 -6 0 -7 -7 -12 -16 -12 -30 0 -427 -202 -466 -237 -10 -9 -18 -13 -18 -9
0 4 -13 -3 -29 -16 -16 -12 -54 -39 -85 -57 -57 -35 -60 -47 -16 -55 14 -2 26
-5 28 -7 1 -1 7 -3 12 -4 6 -1 12 -4 15 -5 3 -1 8 -3 13 -5 8 -2 23 -7 72 -24
19 -7 40 -14 45 -15 14 -4 57 -22 152 -62 78 -34 116 -38 133 -14 8 11 269
135 350 166 41 16 77 31 80 34 3 3 12 7 20 8 8 2 62 19 120 38 98 32 233 70
289 80 12 3 51 11 85 19 33 7 81 17 106 20 25 3 52 8 60 10 8 2 40 6 70 10 30
3 71 8 90 10 64 9 224 17 355 17 137 0 354 -10 365 -17 4 -2 31 -7 61 -10 30
-3 70 -8 89 -11 19 -3 49 -7 65 -9 17 -2 62 -11 100 -20 39 -8 82 -18 97 -20
15 -3 40 -10 55 -16 15 -6 29 -10 31 -10 1 1 3 1 5 0 1 0 9 -2 17 -4 46 -9
146 -39 155 -46 5 -5 15 -9 23 -9 14 0 176 -58 242 -87 19 -9 51 -22 70 -30
54 -24 231 -113 266 -134 l32 -19 68 31 c81 36 279 110 347 129 26 7 47 15 47
19 0 3 -30 24 -66 46 -36 22 -70 45 -77 50 -11 10 -49 33 -142 85 -184 105
-584 279 -700 304 -5 2 -37 11 -70 21 -71 22 -61 19 -160 44 -106 26 -260 59
-310 65 -22 3 -51 8 -65 10 -49 9 -176 22 -309 31 -40 3 -77 8 -82 11 -5 3 -9
0 -9 -6 0 -6 -5 -8 -11 -4 -9 5 -227 13 -232 8z"/>
<path d="M59 6622 c11 -20 132 -332 135 -347 1 -5 4 -14 8 -20 3 -5 20 -48 38
-95 17 -47 35 -94 40 -105 5 -11 37 -92 71 -180 33 -88 90 -233 125 -323 35
-90 64 -166 64 -170 0 -4 6 -19 14 -34 8 -14 19 -43 26 -65 7 -21 26 -64 41
-95 16 -32 28 -60 27 -62 -2 -2 6 -15 18 -28 12 -13 23 -30 26 -38 21 -59 228
-284 312 -338 23 -15 43 -29 46 -33 3 -3 32 -21 65 -41 57 -34 100 -55 260
-128 39 -18 99 -46 135 -63 36 -17 67 -31 70 -32 8 -2 64 -28 225 -102 206
-96 225 -105 350 -163 l110 -50 -65 4 c-36 2 -65 5 -65 6 0 1 -18 3 -40 4 -58
4 -203 17 -250 22 -22 2 -65 6 -95 8 -30 3 -81 7 -112 11 -59 7 -112 12 -208
19 -30 3 -80 8 -110 11 -59 6 -126 12 -228 19 -34 3 -66 7 -70 10 -4 2 -13 1
-20 -3 -8 -5 -8 -14 3 -35 8 -16 15 -33 15 -40 0 -6 6 -22 13 -36 15 -30 51
-123 50 -130 -1 -3 5 -16 12 -30 12 -23 99 -238 100 -250 1 -3 9 -22 18 -44 9
-21 17 -44 17 -50 0 -7 4 -16 9 -22 5 -5 18 -34 29 -64 24 -66 63 -165 177
-455 48 -121 88 -226 88 -232 0 -7 4 -13 9 -13 4 0 8 -5 8 -12 0 -7 25 -77 56
-157 102 -262 123 -306 173 -356 54 -54 62 -60 107 -83 60 -29 83 -35 218 -47
43 -4 86 -8 95 -10 9 -1 59 -6 111 -10 52 -4 107 -8 123 -10 25 -3 32 5 85 93
31 54 65 111 75 127 9 17 20 38 23 48 4 9 10 17 14 17 4 0 11 11 14 25 4 14
11 25 16 25 6 0 10 4 10 10 0 10 182 327 199 347 6 7 11 14 11 17 0 3 46 83
101 178 56 95 111 189 121 208 50 88 174 301 207 355 20 33 42 71 49 85 18 36
159 273 172 287 5 7 10 14 10 17 0 6 72 129 80 136 3 3 11 15 18 28 13 24 15
20 -55 129 -18 28 -33 56 -33 61 0 6 -4 12 -8 14 -4 2 -21 25 -37 52 -77 128
-241 386 -346 544 -27 40 -49 75 -49 78 0 3 -5 10 -11 17 -5 7 -20 27 -32 46
-12 19 -31 49 -42 66 -11 17 -29 46 -40 63 -10 18 -23 32 -27 32 -4 0 -8 5 -8
10 0 13 -440 674 -452 678 -4 2 -8 8 -8 13 0 13 -69 110 -110 155 -41 45 -104
94 -119 94 -6 0 -11 5 -11 10 0 6 -7 10 -15 10 -8 0 -15 5 -15 10 0 6 -7 10
-15 10 -8 0 -15 4 -15 9 0 5 -12 12 -27 16 -16 3 -39 14 -53 23 -14 9 -29 17
-35 18 -5 1 -31 12 -57 23 -26 12 -51 22 -55 22 -5 1 -16 5 -26 11 -10 5 -26
11 -35 13 -9 3 -44 14 -77 25 -33 12 -138 41 -234 66 -149 38 -211 51 -316 69
-26 4 -74 13 -105 20 -30 6 -94 15 -135 20 -16 1 -46 5 -65 8 -63 10 -124 18
-175 23 -27 3 -63 7 -80 9 -31 3 -160 14 -255 21 -30 2 -135 6 -233 9 -166 5
-176 4 -168 -13z"/>
<path d="M7327 6633 c-1 -1 -47 -4 -102 -7 -186 -11 -302 -23 -317 -32 -7 -5
-8 -3 -3 6 5 8 4 11 -2 7 -6 -4 -28 -9 -49 -12 -22 -3 -52 -7 -69 -10 -16 -2
-55 -7 -85 -10 -30 -3 -77 -10 -105 -15 -27 -5 -68 -12 -90 -15 -78 -11 -102
-15 -165 -30 -3 -1 -25 -5 -50 -9 -63 -12 -67 -12 -140 -31 -66 -16 -89 -21
-125 -29 -47 -10 -313 -96 -340 -110 -17 -9 -33 -16 -37 -16 -26 0 -230 -112
-292 -160 -64 -49 -196 -211 -196 -239 0 -5 -3 -11 -7 -13 -5 -1 -43 -57 -87
-122 -43 -66 -82 -124 -88 -130 -5 -6 -28 -40 -51 -75 -23 -35 -50 -76 -59
-90 -10 -14 -21 -33 -25 -41 -3 -8 -10 -17 -13 -20 -8 -6 -143 -210 -149 -225
-2 -5 -7 -12 -10 -15 -11 -8 -307 -468 -461 -715 -78 -126 -153 -246 -165
-265 -12 -19 -38 -61 -58 -92 -20 -32 -37 -60 -37 -63 0 -2 -16 -29 -35 -59
-19 -30 -35 -60 -35 -66 0 -5 -4 -10 -9 -10 -5 0 -11 -8 -15 -17 -3 -10 -11
-27 -18 -38 -7 -11 -25 -39 -40 -63 -16 -24 -28 -45 -28 -47 0 -2 -28 -50 -62
-106 -34 -57 -71 -120 -82 -140 -12 -21 -73 -126 -136 -234 -157 -268 -151
-256 -169 -290 -9 -16 -24 -41 -32 -55 -18 -28 -358 -610 -397 -680 -14 -25
-36 -62 -49 -82 -12 -21 -23 -42 -23 -48 0 -5 -4 -10 -10 -10 -5 0 -10 -4 -10
-9 0 -5 -43 -83 -96 -173 -53 -89 -105 -176 -114 -193 -81 -139 -165 -281
-170 -285 -11 -10 -54 -99 -50 -102 19 -15 134 -69 170 -82 147 -48 318 -38
467 30 138 62 232 140 343 284 122 159 267 270 440 337 67 26 212 69 265 79
17 3 48 9 70 14 22 5 60 11 85 15 25 3 59 8 75 11 17 3 48 7 70 10 22 2 49 6
60 8 11 2 52 7 90 11 39 4 84 9 100 11 17 2 57 6 90 9 33 3 78 7 100 10 22 3
74 7 115 10 41 3 86 7 99 10 13 2 67 7 119 11 52 3 104 7 115 10 11 2 56 6
101 10 45 3 95 7 111 9 17 2 64 6 105 10 127 11 230 36 230 56 0 5 6 9 13 9
19 0 101 79 130 126 19 31 105 232 113 264 0 3 4 14 9 25 4 11 21 54 37 95 16
41 33 84 37 95 5 11 33 81 61 155 29 74 59 150 67 169 8 18 16 39 17 45 1 6 5
16 8 22 4 6 16 37 28 70 12 32 26 68 31 79 5 11 34 85 65 165 31 80 61 156 67
170 5 14 11 30 13 35 1 6 21 55 44 110 22 55 41 102 42 105 0 3 4 14 8 25 5
11 26 67 49 124 36 93 43 130 22 117 -7 -5 -91 -13 -201 -21 -25 -2 -65 -6
-90 -9 -50 -6 -159 -16 -235 -22 -27 -2 -70 -6 -95 -8 -62 -7 -145 -15 -205
-20 -27 -2 -88 -7 -135 -11 -47 -4 -101 -9 -120 -11 -19 -3 -64 -7 -100 -9
l-65 -4 42 20 c24 11 46 20 50 20 5 1 20 10 35 20 14 10 30 19 35 19 5 0 31
11 59 24 27 13 72 33 99 46 28 12 71 33 97 46 27 13 50 24 53 24 2 1 44 19 92
42 120 55 208 96 273 125 142 65 249 116 287 139 24 14 46 24 49 23 4 0 10 3
13 8 3 4 23 19 43 33 21 14 38 28 38 33 0 4 5 7 11 7 20 0 169 152 230 235 33
44 63 85 68 90 9 13 95 187 98 201 2 8 31 84 54 139 5 11 18 45 29 75 12 30
27 69 34 85 14 31 70 176 71 185 1 3 8 21 17 41 9 20 19 47 23 60 4 13 13 38
20 54 7 17 30 73 50 125 19 52 40 104 44 115 5 11 23 56 39 100 17 44 47 123
68 175 20 52 37 101 37 108 0 6 3 12 7 12 4 0 12 17 19 38 7 20 14 42 17 49 4
8 -33 11 -136 10 -78 -1 -142 -3 -143 -4z"/>
<path d="M195 4908 c-4 -9 -8 -22 -9 -30 -6 -31 -18 -75 -27 -98 -4 -14 -11
-36 -14 -50 -2 -14 -14 -68 -25 -120 -11 -52 -23 -107 -25 -122 -3 -16 -7 -41
-10 -56 -3 -16 -7 -46 -10 -68 -2 -21 -7 -57 -10 -79 -27 -199 -36 -494 -21
-725 6 -83 8 -105 22 -225 10 -86 10 -87 17 -120 4 -16 9 -47 11 -67 2 -21 7
-41 9 -45 3 -4 8 -28 11 -53 3 -25 22 -106 42 -180 19 -74 37 -142 39 -150 2
-8 13 -42 25 -75 11 -33 21 -62 22 -65 0 -3 4 -14 9 -25 4 -11 26 -69 49 -130
47 -123 197 -430 266 -545 169 -280 374 -541 589 -751 142 -138 206 -196 270
-244 21 -16 47 -36 56 -45 32 -30 59 -50 68 -50 5 0 11 -3 13 -8 5 -11 146
-112 157 -112 5 0 11 -3 13 -7 3 -9 64 -53 72 -53 3 0 36 -19 73 -42 38 -24
77 -48 88 -55 30 -18 293 -148 350 -172 28 -12 59 -26 70 -31 97 -42 432 -153
500 -165 11 -2 20 -4 20 -5 0 -1 7 -3 15 -5 40 -8 67 -14 90 -19 14 -3 45 -10
70 -15 25 -6 59 -12 75 -15 17 -2 46 -6 65 -10 112 -19 222 -31 360 -41 60 -5
411 -5 480 0 87 5 175 13 217 19 21 3 58 8 83 11 40 5 103 15 180 30 55 10
278 64 330 80 30 9 62 17 70 19 161 40 659 258 744 326 10 8 19 13 20 11 1 -5
15 3 96 54 105 66 155 100 158 107 2 4 8 8 14 8 15 0 217 154 323 245 107 93
306 292 390 390 33 38 65 75 70 81 6 6 19 23 30 38 11 16 25 33 30 40 9 10 54
70 118 158 15 20 27 41 27 46 0 6 3 12 8 14 8 3 102 143 102 152 0 3 10 20 23
39 12 18 42 73 67 123 25 49 47 91 50 94 3 3 26 50 51 105 43 93 71 163 133
325 39 103 118 380 109 380 -3 0 0 7 7 15 7 8 10 15 7 15 -3 0 -2 14 3 32 5
17 12 49 16 72 3 22 7 43 9 46 4 6 40 259 52 360 15 132 7 665 -12 790 -2 14
-6 48 -10 75 -3 28 -13 86 -21 130 -8 44 -17 91 -19 105 -5 34 -11 61 -35 155
-11 44 -22 89 -25 101 -3 11 -11 37 -18 57 l-13 38 -64 -98 c-61 -94 -166
-211 -222 -247 -19 -12 -25 -24 -22 -39 2 -12 6 -33 9 -47 2 -14 7 -38 10 -55
3 -16 7 -39 9 -50 2 -11 7 -42 10 -70 4 -27 9 -63 12 -80 21 -148 31 -465 19
-635 -6 -94 -16 -194 -21 -220 -2 -14 -7 -50 -10 -80 -4 -30 -9 -57 -13 -60
-3 -3 -6 -16 -7 -30 -1 -39 -26 -161 -51 -249 -8 -29 -17 -61 -18 -70 -2 -9
-4 -16 -5 -16 -1 0 -3 -7 -5 -15 -18 -87 -168 -472 -214 -550 -5 -8 -28 -51
-51 -95 -51 -97 -112 -199 -122 -203 -5 -2 -8 -8 -8 -14 0 -6 -11 -26 -25 -44
-14 -18 -25 -35 -25 -39 0 -3 -5 -11 -10 -18 -16 -19 -64 -83 -80 -107 -8 -12
-19 -28 -25 -34 -5 -6 -37 -45 -70 -86 -72 -90 -124 -147 -231 -254 -101 -102
-287 -264 -333 -290 -9 -5 -20 -15 -26 -22 -35 -43 -367 -247 -539 -331 -225
-111 -598 -241 -765 -268 -14 -2 -48 -9 -76 -15 -90 -19 -123 -24 -294 -45
-81 -10 -227 -16 -376 -16 -181 0 -286 7 -426 27 -24 4 -57 8 -74 9 -16 2 -30
4 -30 5 0 1 -11 3 -25 6 -67 11 -80 14 -155 29 -11 2 -29 6 -40 9 -69 18 -95
23 -95 19 0 -3 -6 -1 -12 4 -7 6 -26 13 -43 17 -83 19 -287 90 -383 132 -29
13 -55 24 -58 24 -3 0 -72 33 -152 73 -128 64 -367 204 -427 251 -11 9 -69 53
-130 99 -205 155 -397 344 -584 572 -134 165 -314 451 -404 645 -66 142 -96
210 -92 210 2 0 -7 24 -20 54 -19 43 -80 224 -91 271 -2 6 -14 53 -27 105 -14
52 -27 109 -30 125 -3 17 -10 55 -16 85 -18 96 -19 104 -26 164 -4 32 -8 68
-10 80 -26 171 -24 569 6 791 16 123 19 144 41 254 l12 63 -29 25 c-56 45
-147 138 -163 166 -9 15 -20 27 -24 27 -4 0 -8 4 -8 9 0 5 -20 40 -45 77 -32
50 -46 64 -50 52z"/>
<path d="M4990 1801 c0 -3 -17 -6 -38 -7 -43 -1 -185 -14 -211 -19 -9 -2 -50
-6 -91 -9 -41 -4 -91 -9 -110 -11 -19 -2 -55 -7 -80 -10 -53 -6 -113 -15 -155
-22 -16 -2 -43 -6 -59 -9 -41 -5 -42 -9 -7 -46 18 -18 51 -58 74 -88 42 -55
141 -158 187 -194 73 -58 237 -132 312 -140 13 -1 28 -4 33 -7 12 -6 148 -3
190 4 40 7 169 49 175 58 3 3 24 16 48 28 l43 22 -18 32 c-10 18 -20 34 -23
37 -5 5 -13 19 -58 99 -14 25 -37 64 -50 86 -14 22 -30 49 -36 60 -47 87 -82
134 -103 138 -13 2 -23 1 -23 -2z"/>
</g>
</svg>
