<svg width="993" height="747" viewBox="0 0 993 747" fill="none" xmlns="http://www.w3.org/2000/svg">
<path fill-rule="evenodd" clip-rule="evenodd" d="M1044.84 0.133472L971.546 188.798C955.214 230.84 923.177 264.886 882.205 283.743L738.034 350.094L915.445 333.612L817.514 583.443C810.112 602.326 792.614 615.485 772.42 617.373C558.472 637.377 503.961 634.52 453.157 702.872C423.657 742.561 371.402 760.232 328.576 735.506L319.893 730.494C530.256 375.095 525.936 365.573 716.4 83.4572C757.643 22.3681 954.466 -0.960106 1044.84 0.133472Z" fill="#EFF6FF"/>
<path d="M497.506 342.491C455.563 273.724 409.821 203.107 329.041 83.4562C287.798 22.3671 90.9753 -0.961052 0.605225 0.132526L73.8955 188.797C90.2276 230.839 122.264 264.885 163.236 283.742L307.407 350.093L129.996 333.611L227.927 583.442C235.33 602.326 252.827 615.484 273.021 617.373C294.693 619.399 314.728 621.19 333.289 622.845C365.482 568.018 391.712 522.915 414.494 483.74C446.68 428.394 471.988 384.876 497.506 342.491Z" fill="#EFF6FF"/>
<path d="M573.901 681.507C580.251 687.741 586.293 694.811 592.284 702.871C621.784 742.56 674.039 760.231 716.865 735.505L725.548 730.493C712.511 708.467 700.298 687.77 688.813 668.255C638.533 672.783 602.258 676.34 573.901 681.507Z" fill="#EFF6FF"/>
</svg>
