<svg width="149" height="45" viewBox="0 0 149 45" fill="none" xmlns="http://www.w3.org/2000/svg">
<path fill-rule="evenodd" clip-rule="evenodd" d="M43.5788 6.34861L40.5274 14.2035C39.8474 15.9539 38.5136 17.3714 36.8077 18.1565L30.8053 20.919L38.1917 20.2328L34.1144 30.6344C33.8062 31.4206 33.0777 31.9684 32.2369 32.0471C23.3293 32.8799 21.0598 32.7609 18.9446 35.6067C17.7164 37.2592 15.5408 37.9949 13.7577 36.9654L13.3962 36.7567C22.1546 21.9599 21.9747 21.5635 29.9046 9.81774C31.6217 7.27433 39.8163 6.30308 43.5788 6.34861Z" fill="#3B82F6"/>
<path d="M20.791 20.6025C19.0447 17.7394 17.1403 14.7993 13.7771 9.8177C12.06 7.27429 3.86535 6.30304 0.102844 6.34857L3.15424 14.2035C3.83422 15.9539 5.16805 17.3714 6.8739 18.1565L12.8764 20.919L5.48994 20.2328L9.56728 30.6343C9.87546 31.4205 10.604 31.9684 11.4447 32.047C12.347 32.1314 13.1812 32.206 13.954 32.2749C15.2943 29.9922 16.3863 28.1143 17.3349 26.4833C18.6749 24.179 19.7286 22.3671 20.791 20.6025Z" fill="#3B82F6"/>
<path d="M23.9717 34.7172C24.2361 34.9768 24.4876 35.2711 24.7371 35.6067C25.9653 37.2591 28.1409 37.9948 29.9239 36.9654L30.2854 36.7567C29.7426 35.8397 29.2342 34.978 28.756 34.1655C26.6626 34.354 25.1523 34.5021 23.9717 34.7172Z" fill="#3B82F6"/>
<path fill-rule="evenodd" clip-rule="evenodd" d="M32.1694 5.31708C31.9278 5.41836 31.683 5.52868 31.4395 5.64929C28.5941 4.02517 25.3001 3.09715 21.7893 3.09715C18.2981 3.09715 15.0212 4.01489 12.1867 5.62228C11.9613 5.51214 11.735 5.41072 11.5116 5.31704C10.8787 5.05167 10.1922 4.81762 9.4781 4.61157C12.9807 2.20871 17.2208 0.802734 21.7893 0.802734C26.3711 0.802734 30.6225 2.21686 34.131 4.63247C33.4427 4.83342 32.781 5.06063 32.1694 5.31708ZM21.7893 44.3812C33.8232 44.3811 43.5786 34.6257 43.5786 22.5919C43.5786 20.368 43.2454 18.222 42.6264 16.201C41.9679 17.2708 41.6707 17.7265 40.8195 18.3416C41.1237 19.7098 41.2842 21.1321 41.2842 22.5919C41.2842 33.3586 32.556 42.0868 21.7892 42.0868V42.087C11.0225 42.0869 2.29442 33.3588 2.29442 22.5921C2.29442 21.1323 2.45486 19.71 2.75908 18.3419C1.90789 17.7268 1.61065 17.271 0.952237 16.2013C0.33314 18.2223 0 20.3683 0 22.5921C0 34.626 9.75542 44.3814 21.7893 44.3814V44.3812Z" fill="#1F2937"/>
<path d="M55.6289 39.9466V34.1302H56.7881C57.1067 34.1302 57.3745 34.1878 57.5914 34.3031C57.8083 34.4115 57.9677 34.5742 58.0693 34.7912C58.1778 35.0081 58.232 35.2826 58.232 35.6148C58.232 35.947 58.1778 36.2283 58.0693 36.4588C57.9609 36.6825 57.7982 36.8554 57.5812 36.9774C57.3643 37.0926 57.0898 37.1503 56.7576 37.1503H55.334V37.8316H56.8796C57.4152 37.8316 57.8795 37.7434 58.2727 37.5672C58.6727 37.3841 58.9811 37.1265 59.1981 36.7944C59.4218 36.4622 59.5336 36.0622 59.5336 35.5945C59.5336 34.903 59.3031 34.3742 58.8422 34.0082C58.3812 33.6353 57.7372 33.4489 56.9101 33.4489H53.4731V34.0692H53.585C53.8087 34.0692 53.9951 34.0929 54.1443 34.1404C54.2934 34.1878 54.368 34.2861 54.368 34.4353V39.6822C54.368 39.8314 54.2934 39.9297 54.1443 39.9771C53.9951 40.0246 53.8087 40.0483 53.585 40.0483H53.4731V40.6686H56.6559V40.0381H56.422C56.3203 40.0381 56.222 40.0381 56.1271 40.0381C56.039 40.0314 55.9543 40.0246 55.8729 40.0178C55.7984 40.011 55.7373 40.0042 55.6899 39.9975C55.6492 39.9839 55.6289 39.967 55.6289 39.9466Z" fill="#656565"/>
<path d="M64.9912 37.4045L66.6894 40.6686H68.4587V40.0381H68.3672C68.2451 40.0381 68.1333 40.028 68.0316 40.0076C67.9367 39.9873 67.8486 39.9432 67.7672 39.8754C67.6859 39.8077 67.6079 39.7127 67.5333 39.5907L66.1504 37.1401L64.9912 37.4045ZM63.7811 39.9365V34.12H64.9404C65.259 34.12 65.52 34.1743 65.7233 34.2827C65.9267 34.3912 66.0792 34.5505 66.1809 34.7606C66.2826 34.964 66.3335 35.2148 66.3335 35.5131C66.3335 35.8182 66.2826 36.0826 66.1809 36.3063C66.0792 36.53 65.9233 36.7028 65.7132 36.8249C65.503 36.9401 65.2285 36.9977 64.8895 36.9977H63.6083V37.6485H65.1641C65.2251 37.6485 65.2827 37.6417 65.3369 37.6282C65.3979 37.6079 65.4556 37.5875 65.5098 37.5672C65.5708 37.5468 65.6284 37.5231 65.6827 37.496C66.0962 37.4146 66.4487 37.2825 66.7402 37.0994C67.0385 36.9164 67.2656 36.6859 67.4215 36.408C67.5842 36.13 67.6655 35.8114 67.6655 35.4521C67.6655 35.0318 67.5605 34.6725 67.3503 34.3742C67.1469 34.0692 66.8521 33.8387 66.4656 33.6828C66.0792 33.5269 65.6115 33.4489 65.0624 33.4489H61.6356V34.0794H61.7474C61.9711 34.0794 62.1576 34.1031 62.3067 34.1505C62.4558 34.198 62.5304 34.2963 62.5304 34.4454V39.6721C62.5304 39.8212 62.4558 39.9195 62.3067 39.967C62.1576 40.0144 61.9711 40.0381 61.7474 40.0381H61.6356V40.6686H64.737V40.0381H64.5743C64.4794 40.0381 64.3845 40.0381 64.2896 40.0381C64.1947 40.0314 64.1099 40.0246 64.0354 40.0178C63.9608 40.0042 63.8998 39.9941 63.8523 39.9873C63.8049 39.9737 63.7811 39.9568 63.7811 39.9365Z" fill="#656565"/>
<path d="M74.0845 40.8415C73.5558 40.8415 73.0677 40.7567 72.6203 40.5872C72.1796 40.4178 71.7966 40.1703 71.4712 39.8449C71.1458 39.5128 70.895 39.1128 70.7187 38.645C70.5425 38.1773 70.4543 37.6485 70.4543 37.0587C70.4543 36.4622 70.5425 35.9334 70.7187 35.4724C70.895 35.0047 71.1458 34.6081 71.4712 34.2827C71.7966 33.9506 72.1796 33.6997 72.6203 33.5303C73.0677 33.354 73.5558 33.2659 74.0845 33.2659C74.6201 33.2659 75.1082 33.354 75.5488 33.5303C75.9894 33.6997 76.3725 33.9506 76.6979 34.2827C77.0232 34.6081 77.2741 35.0047 77.4503 35.4724C77.6266 35.9334 77.7147 36.4622 77.7147 37.0587C77.7147 37.6485 77.6266 38.1773 77.4503 38.645C77.2741 39.1128 77.0232 39.5128 76.6979 39.8449C76.3725 40.1703 75.9894 40.4178 75.5488 40.5872C75.1082 40.7567 74.6201 40.8415 74.0845 40.8415ZM74.0845 40.1297C74.4438 40.1297 74.7624 40.0653 75.0404 39.9365C75.3251 39.8077 75.5658 39.6178 75.7623 39.367C75.9657 39.1094 76.1182 38.7874 76.2199 38.401C76.3284 38.0146 76.3826 37.5672 76.3826 37.0587C76.3826 36.5503 76.3284 36.1029 76.2199 35.7165C76.1182 35.3301 75.9657 35.0115 75.7623 34.7606C75.5658 34.503 75.3251 34.3098 75.0404 34.181C74.7624 34.0522 74.4438 33.9878 74.0845 33.9878C73.732 33.9878 73.4134 34.0522 73.1287 34.181C72.844 34.3098 72.5999 34.503 72.3965 34.7606C72.2 35.0115 72.0474 35.3301 71.939 35.7165C71.8373 36.1029 71.7864 36.5503 71.7864 37.0587C71.7864 37.5672 71.8373 38.0146 71.939 38.401C72.0474 38.7874 72.2 39.1094 72.3965 39.367C72.5931 39.6178 72.8338 39.8077 73.1185 39.9365C73.41 40.0653 73.732 40.1297 74.0845 40.1297Z" fill="#656565"/>
<path d="M82.1947 33.4489H85.4283V34.0794H85.2656C85.0419 34.0794 84.8555 34.1031 84.7063 34.1505C84.5572 34.198 84.4826 34.2963 84.4826 34.4454V38.3502C84.4826 38.8111 84.4216 39.2009 84.2996 39.5195C84.1843 39.8382 84.0149 40.0958 83.7911 40.2924C83.5742 40.4822 83.3132 40.6211 83.0082 40.7093C82.7031 40.7974 82.3608 40.8415 81.9811 40.8415C81.6286 40.8415 81.31 40.8008 81.0253 40.7194C80.7474 40.6449 80.5101 40.55 80.3135 40.4347C80.1169 40.3195 79.961 40.2076 79.8457 40.0992V38.5535H81.005V40.0483C80.8897 40.0144 80.788 39.9703 80.6999 39.9161C80.6186 39.8551 80.5609 39.7975 80.527 39.7433C80.4999 39.6822 80.4965 39.6382 80.5169 39.6111C80.544 39.5839 80.5982 39.5839 80.6796 39.6111C80.7541 39.6924 80.849 39.7771 80.9643 39.8653C81.0795 39.9466 81.2185 40.0144 81.3812 40.0686C81.5439 40.1161 81.7269 40.1398 81.9303 40.1398C82.215 40.1398 82.4523 40.0924 82.6421 39.9975C82.8319 39.8958 82.9777 39.7161 83.0793 39.4585C83.181 39.2009 83.2319 38.8349 83.2319 38.3603V34.4454C83.2319 34.3437 83.1946 34.2692 83.12 34.2217C83.0522 34.1675 82.9573 34.1302 82.8353 34.1099C82.7201 34.0895 82.5845 34.0794 82.4286 34.0794H82.1947V33.4489Z" fill="#656565"/>
<path d="M93.4298 38.3908V40.6686H87.6032V40.0381H87.715C87.9387 40.0381 88.1252 40.0144 88.2743 39.967C88.4234 39.9195 88.498 39.8212 88.498 39.6721V34.4454C88.498 34.2963 88.4234 34.198 88.2743 34.1505C88.1252 34.1031 87.9387 34.0794 87.715 34.0794H87.6032V33.4489H93.1857V35.4724H92.4739L92.3722 34.5776C92.3587 34.4556 92.3078 34.3641 92.2197 34.3031C92.1316 34.2353 92.0028 34.1912 91.8333 34.1709C91.6638 34.1438 91.4435 34.1302 91.1723 34.1302H89.7487V39.9873H91.335C91.552 39.9873 91.735 39.9805 91.8841 39.967C92.0401 39.9534 92.1655 39.9297 92.2604 39.8958C92.3621 39.8619 92.4366 39.8178 92.4841 39.7636C92.5383 39.7026 92.5688 39.628 92.5756 39.5399L92.7078 38.3908H93.4298ZM89.5149 36.652C89.8199 36.6384 90.1182 36.6249 90.4097 36.6113C90.708 36.5978 91.0063 36.5842 91.3045 36.5707C91.6028 36.5503 91.9011 36.5334 92.1994 36.5198V37.4045C91.9011 37.3909 91.6028 37.3774 91.3045 37.3638C91.013 37.3435 90.7181 37.3265 90.4199 37.313C90.1216 37.2994 89.8199 37.2858 89.5149 37.2723V36.652Z" fill="#656565"/>
<path d="M99.3052 33.9878C98.9663 33.9878 98.6612 34.0556 98.39 34.1912C98.1189 34.32 97.885 34.5132 97.6884 34.7708C97.4986 35.0284 97.3528 35.347 97.2512 35.7267C97.1495 36.1063 97.0986 36.5503 97.0986 37.0587C97.0986 37.5672 97.1495 38.0146 97.2512 38.401C97.3528 38.7806 97.502 39.0992 97.6986 39.3568C97.8952 39.6144 98.1358 39.8077 98.4205 39.9365C98.712 40.0653 99.0476 40.1297 99.4272 40.1297C99.8543 40.1297 100.22 40.0415 100.525 39.8653C100.831 39.689 101.081 39.4484 101.278 39.1433C101.481 38.8315 101.637 38.4857 101.746 38.1061L102.427 38.3908C102.291 38.8857 102.085 39.3196 101.807 39.6924C101.529 40.0585 101.183 40.3432 100.769 40.5466C100.356 40.7432 99.8713 40.8415 99.3154 40.8415C98.7866 40.8415 98.3053 40.7567 97.8714 40.5872C97.4376 40.4178 97.0613 40.1703 96.7427 39.8449C96.4309 39.5195 96.1902 39.123 96.0208 38.6552C95.8513 38.1875 95.7666 37.6553 95.7666 37.0587C95.7666 36.4622 95.8513 35.93 96.0208 35.4623C96.197 34.9877 96.4411 34.5878 96.7529 34.2624C97.0715 33.937 97.441 33.6896 97.8613 33.5201C98.2816 33.3506 98.7358 33.2659 99.2239 33.2659C99.7052 33.2659 100.115 33.3506 100.454 33.5201C100.793 33.6896 101.071 33.9302 101.288 34.2421C101.505 34.5539 101.654 34.9335 101.736 35.3809L101.4 35.1064L101.552 33.3981H102.285V35.8385H101.471C101.363 35.4589 101.21 35.1335 101.014 34.8623C100.824 34.5844 100.586 34.3709 100.302 34.2217C100.017 34.0658 99.6848 33.9878 99.3052 33.9878Z" fill="#656565"/>
<path d="M107.285 39.6721V34.12H106.797C106.498 34.12 106.258 34.137 106.075 34.1709C105.898 34.198 105.766 34.2488 105.678 34.3234C105.597 34.3912 105.549 34.4861 105.536 34.6081L105.424 35.7978H104.712V33.4489H111.118V35.7978H110.406L110.295 34.6081C110.288 34.4861 110.24 34.3912 110.152 34.3234C110.064 34.2488 109.929 34.198 109.745 34.1709C109.569 34.137 109.332 34.12 109.034 34.12H108.546V39.6721C108.546 39.8212 108.624 39.9195 108.779 39.967C108.935 40.0144 109.125 40.0381 109.349 40.0381H109.532V40.6686H106.298V40.0381H106.471C106.702 40.0381 106.895 40.0144 107.051 39.967C107.207 39.9195 107.285 39.8212 107.285 39.6721Z" fill="#656565"/>
<path d="M58.2525 8.77829C57.4187 8.77829 56.7577 8.57492 56.2696 8.16818C55.7815 7.76143 55.5375 7.16149 55.5375 6.36834C55.5375 5.59553 55.7815 5.00575 56.2696 4.59901C56.7577 4.19226 57.4187 3.98889 58.2525 3.98889C59.066 3.98889 59.7168 4.19226 60.2048 4.59901C60.6929 5.00575 60.937 5.59553 60.937 6.36834C60.937 7.16149 60.6929 7.76143 60.2048 8.16818C59.7168 8.57492 59.066 8.77829 58.2525 8.77829Z" fill="#1F2937"/>
<path d="M144.546 22.5059C144.77 22.7703 144.882 23.1262 144.882 23.5736C144.882 24.1024 144.76 24.5396 144.516 24.8853C144.272 25.2311 143.906 25.4955 143.418 25.6785C142.929 25.8412 142.319 25.9225 141.587 25.9225C140.936 25.9225 140.336 25.8717 139.787 25.77C139.238 25.648 138.75 25.5056 138.323 25.3429V22.6279H134.784V26.6242C135.171 26.8479 135.679 27.0716 136.31 27.2953C136.94 27.519 137.693 27.702 138.567 27.8444C139.462 28.0071 140.459 28.0884 141.557 28.0884C143.204 28.0884 144.577 27.8749 145.675 27.4478C146.794 27.0207 147.627 26.4106 148.176 25.6175C148.726 24.804 149 23.8278 149 22.6889C149 21.8348 148.827 21.123 148.482 20.5535C148.156 19.9637 147.709 19.496 147.139 19.1503C146.59 18.7842 145.97 18.4893 145.278 18.2656C144.607 18.0419 143.936 17.8487 143.265 17.686C142.696 17.564 142.157 17.4419 141.648 17.3199C141.14 17.1776 140.692 17.025 140.306 16.8623C139.92 16.6793 139.615 16.4556 139.391 16.1912C139.187 15.9065 139.086 15.5506 139.086 15.1235C139.086 14.4727 139.32 13.9745 139.787 13.6287C140.275 13.283 141.028 13.1101 142.045 13.1101C142.614 13.1101 143.123 13.1508 143.57 13.2321C143.956 13.3024 144.312 13.4029 144.638 13.5337V15.8251H148.085V12.0729C147.882 11.9509 147.515 11.7984 146.987 11.6153C146.458 11.4323 145.777 11.2798 144.943 11.1578C144.129 11.0154 143.163 10.9442 142.045 10.9442C140.642 10.9442 139.421 11.1374 138.384 11.5238C137.367 11.9102 136.574 12.4797 136.005 13.2321C135.456 13.9643 135.181 14.8795 135.181 15.9777C135.181 16.8725 135.344 17.6148 135.669 18.2046C135.995 18.774 136.432 19.2418 136.981 19.6078C137.53 19.9536 138.13 20.2383 138.781 20.462C139.452 20.6654 140.123 20.8382 140.794 20.9806C141.343 21.1026 141.852 21.2246 142.319 21.3467C142.807 21.4687 143.245 21.6212 143.631 21.8043C144.018 21.9873 144.323 22.2212 144.546 22.5059Z" fill="#1F2937"/>
<path d="M75.7835 25.3124C75.2141 25.5971 74.5429 25.7395 73.7701 25.7395C72.9363 25.7395 72.2143 25.6175 71.6042 25.3734C71.0145 25.109 70.5162 24.7226 70.1094 24.2142C69.723 23.7058 69.4383 23.0652 69.2553 22.2924C69.0723 21.4992 68.9807 20.584 68.9807 19.5468C68.9807 18.1842 69.1333 17.0454 69.4383 16.1302C69.7637 15.1947 70.262 14.4931 70.9331 14.0253C71.6042 13.5575 72.4686 13.3237 73.5261 13.3237C74.3192 13.3237 75.0209 13.4457 75.631 13.6897C75.7363 13.7284 75.838 13.7694 75.936 13.8129V17.3504H79.6577V12.439C79.4137 12.256 79.007 12.0628 78.4375 11.8594C77.8681 11.6357 77.1563 11.4425 76.3021 11.2798C75.448 11.0967 74.4616 11.0052 73.3431 11.0052C71.472 11.0052 69.8654 11.3408 68.5232 12.0119C67.1809 12.683 66.1437 13.6592 65.4116 14.9405C64.6998 16.2014 64.3439 17.7368 64.3439 19.5468C64.3439 21.3365 64.7099 22.872 65.4421 24.1532C66.1742 25.4344 67.2012 26.4106 68.5232 27.0817C69.8451 27.7529 71.4009 28.0884 73.1905 28.0884C74.3497 28.0884 75.3666 27.9257 76.2411 27.6003C77.1359 27.2546 77.9087 26.7767 78.5595 26.1666C79.2103 25.5361 79.7391 24.804 80.1458 23.9702L78.346 22.6889C78.0409 23.2177 77.6749 23.716 77.2478 24.1837C76.841 24.6515 76.353 25.0277 75.7835 25.3124Z" fill="#1F2937"/>
<path d="M60.6624 24.4277V11.3103H54.0732V13.3542L54.3478 13.4152C54.9782 13.5372 55.446 13.6694 55.751 13.8118C56.0561 13.9338 56.2086 14.1778 56.2086 14.5439V24.4277C56.2086 25.0175 56.0256 25.4141 55.6595 25.6175C55.2934 25.8208 54.7952 25.9225 54.1647 25.9225H54.0732V27.7529H62.7673V25.9225H62.7063C62.0759 25.9225 61.5776 25.8208 61.2116 25.6175C60.8455 25.4141 60.6624 25.0175 60.6624 24.4277Z" fill="#1F2937"/>
<path fill-rule="evenodd" clip-rule="evenodd" d="M91.4268 26.3496C91.8028 25.9302 92.148 25.4439 92.4623 24.8907L92.769 27.7529H98.7176V25.77L98.5346 25.709C98.1278 25.648 97.7821 25.587 97.4974 25.526C97.2127 25.4446 96.989 25.3429 96.8263 25.2209C96.6839 25.0785 96.6127 24.8955 96.6127 24.6718V15.9777C96.6127 15.1032 96.45 14.3507 96.1246 13.7202C95.7992 13.0898 95.3417 12.5712 94.7519 12.1644C94.1621 11.7577 93.4503 11.4628 92.6165 11.2798C91.7827 11.0967 90.8573 11.0052 89.8405 11.0052C88.6609 11.0052 87.6135 11.1171 86.6984 11.3408C85.8035 11.5442 85.0511 11.7882 84.4409 12.0729C83.8512 12.3373 83.4037 12.5814 83.0987 12.8051V16.6183H86.8814V13.7027L86.9119 13.6897C87.583 13.405 88.4372 13.2627 89.4744 13.2627C90.1862 13.2627 90.7353 13.3542 91.1217 13.5372C91.5284 13.6999 91.8132 13.9643 91.9759 14.3304C92.1386 14.6761 92.2199 15.1438 92.2199 15.7336V17.8468C90.5179 18.0948 89.0536 18.3767 87.8271 18.6927C86.4848 19.0181 85.3866 19.4146 84.5325 19.8824C83.6986 20.3502 83.0885 20.8993 82.7021 21.5297C82.3157 22.1602 82.1225 22.9025 82.1225 23.7566C82.1225 24.7125 82.3259 25.5158 82.7326 26.1666C83.1394 26.8174 83.7291 27.3055 84.502 27.6309C85.2748 27.9359 86.2001 28.0884 87.278 28.0884C88.1525 28.0884 88.9253 27.9461 89.5964 27.6614C90.2879 27.3563 90.898 26.9191 91.4268 26.3496ZM90.0845 20.1875C90.6968 20.0174 91.4086 19.8687 92.2199 19.7412V23.2833C91.9454 23.7194 91.6708 24.1009 91.3962 24.4277C90.9895 24.9158 90.5624 25.2819 90.115 25.526C89.6879 25.77 89.2202 25.892 88.7117 25.892C88.2237 25.892 87.8067 25.8107 87.461 25.648C87.1153 25.4853 86.8509 25.2412 86.6679 24.9158C86.4848 24.5701 86.3933 24.1227 86.3933 23.5736C86.3933 23.1872 86.4442 22.8313 86.5458 22.5059C86.6679 22.1602 86.8611 21.8551 87.1254 21.5907C87.3898 21.306 87.7661 21.0518 88.2542 20.8281C88.7423 20.584 89.3524 20.3705 90.0845 20.1875Z" fill="#1F2937"/>
<path d="M112.547 15.3981V11.1578C112.466 11.1171 112.314 11.0866 112.09 11.0662C111.866 11.0256 111.622 11.0052 111.358 11.0052C110.483 11.0052 109.721 11.2086 109.07 11.6153C108.439 12.0018 107.87 12.5712 107.361 13.3237C107.008 13.869 106.654 14.505 106.3 15.2319L105.958 11.3103H99.9486V13.3542L100.223 13.4152C100.63 13.4965 100.965 13.5779 101.23 13.6592C101.515 13.7406 101.718 13.8524 101.84 13.9948C101.982 14.1168 102.053 14.2999 102.053 14.5439V24.3362C102.053 24.9667 101.87 25.3938 101.504 25.6175C101.138 25.8208 100.65 25.9225 100.04 25.9225H99.9486V27.7529H109.192V25.9225H108.734C108.429 25.9225 108.104 25.9124 107.758 25.892C107.433 25.8717 107.148 25.8208 106.904 25.7395C106.66 25.6581 106.538 25.5463 106.538 25.4039V16.6592C106.65 16.5458 106.762 16.4407 106.873 16.3437C107.178 16.059 107.504 15.8353 107.85 15.6726C108.216 15.5099 108.602 15.3981 109.009 15.337C109.416 15.2557 109.863 15.215 110.351 15.215C110.615 15.215 110.88 15.2252 111.144 15.2455C111.429 15.2455 111.693 15.2659 111.937 15.3065C112.202 15.3269 112.405 15.3574 112.547 15.3981Z" fill="#1F2937"/>
<path d="M120.522 11.3103V22.933C120.522 23.4414 120.583 23.8786 120.705 24.2447C120.847 24.5904 121.071 24.8548 121.376 25.0379C121.681 25.2209 122.077 25.3124 122.565 25.3124C123.115 25.3124 123.643 25.1802 124.152 24.9158C124.681 24.6515 125.199 24.2549 125.708 23.7261C126.002 23.4199 126.297 23.0725 126.592 22.6841V14.5439C126.592 14.1778 126.419 13.9134 126.074 13.7507C125.728 13.588 125.24 13.4762 124.609 13.4152L123.999 13.3542V11.3103H131.077V24.6718C131.077 24.8955 131.148 25.0785 131.29 25.2209C131.453 25.3429 131.677 25.4446 131.961 25.526C132.246 25.587 132.592 25.648 132.998 25.709L133.212 25.77V27.7529H127.202L126.849 24.4648C126.438 25.0816 125.986 25.6285 125.494 26.1056C124.843 26.736 124.131 27.2241 123.359 27.5698C122.586 27.8952 121.752 28.0579 120.857 28.0579C119.861 28.0579 118.996 27.8749 118.264 27.5088C117.552 27.1428 117.003 26.6038 116.617 25.892C116.23 25.1599 116.037 24.2651 116.037 23.2075V14.5439C116.037 14.1778 115.885 13.9236 115.58 13.7813C115.295 13.6186 114.837 13.4965 114.207 13.4152L113.841 13.3542V11.3103H120.522Z" fill="#1F2937"/>
</svg>
